<svg width="53" height="9" viewBox="0 0 53 9" fill="none" xmlns="http://www.w3.org/2000/svg">
<path d="M0.0166016 8.99973L1.46547 0.272461H5.23251C5.88024 0.272461 6.42711 0.390359 6.87314 0.626154C7.31916 0.86195 7.64018 1.20144 7.8362 1.64462C8.03223 2.0878 8.0791 2.61905 7.97683 3.23837C7.87456 3.86337 7.6487 4.39036 7.29927 4.81934C6.95268 5.24547 6.51092 5.56934 5.97399 5.79093C5.4399 6.00968 4.84047 6.11905 4.17569 6.11905H1.92569L2.23251 4.27814H4.00524C4.28365 4.27814 4.52797 4.24405 4.73819 4.17587C4.94842 4.10485 5.11887 3.99405 5.24956 3.84348C5.38024 3.69007 5.46547 3.48837 5.50524 3.23837C5.54501 2.98837 5.52512 2.78525 5.44558 2.629C5.36603 2.4699 5.23393 2.35343 5.04927 2.27956C4.86461 2.20286 4.63592 2.16451 4.36319 2.16451H3.52797L2.38592 8.99973H0.0166016ZM5.79501 4.99405L7.31206 8.99973H4.73819L3.27228 4.99405H5.79501Z" fill="currentColor"/>
<path d="M8.14941 8.99973L9.59828 0.272461H44.2739L43.95 2.18155H11.6437L11.4051 3.68155H43.3875L43.0637 5.59064H11.0812L10.8426 7.09064H43.1318L42.808 8.99973H8.14941Z" fill="currentColor"/>
<path d="M53 0.272461L51.5511 8.99973H49.5739L47.1875 4.41451H47.1364L46.3693 8.99973H44L45.4489 0.272461H47.4602L49.8125 4.84064H49.8807L50.6307 0.272461H53Z" fill="currentColor"/>
</svg>
